<svg width="36" height="52" viewBox="0 0 36 52" fill="none" xmlns="http://www.w3.org/2000/svg">
<path d="M33.1875 20.5395C33.1962 20.4167 33.1962 20.2935 33.1875 20.1707V7.26447C33.1835 7.04337 33.1398 6.82478 33.0584 6.61916C33.0391 6.55262 33.0079 6.49014 32.9663 6.43478C32.8974 6.30071 32.8105 6.17665 32.7081 6.06603C32.6753 6.0088 32.6314 5.95866 32.5791 5.91853C32.4525 5.80542 32.3095 5.71218 32.155 5.64197H32.0259L17.2759 0.110718C16.8584 -0.036906 16.4029 -0.036906 15.9853 0.110718L1.23531 5.64197C0.879375 5.77116 0.571846 6.0068 0.354518 6.31688C0.13719 6.62696 0.0206033 6.99644 0.0206033 7.37509C0.0206033 7.75375 0.13719 8.12323 0.354518 8.4333C0.571846 8.74338 0.879375 8.97903 1.23531 9.10822L6.76656 11.1917C6.66403 11.3679 6.59525 11.5618 6.56375 11.7632L5.53125 19.9495C5.48718 20.3176 5.55509 20.6904 5.72612 21.0193C5.89715 21.3482 6.16336 21.6179 6.49 21.7932C6.76181 21.9399 7.06612 22.016 7.375 22.0145V23.6923C7.40046 24.9661 7.73617 26.2146 8.35302 27.3294C8.96987 28.4442 9.84927 29.3918 10.915 30.0901C7.96464 30.548 5.26432 32.0148 3.27406 34.2403C1.28381 36.4659 0.12675 39.3127 0 42.2957V49.6707C0 50.1597 0.194252 50.6287 0.540022 50.9744C0.885792 51.3202 1.35476 51.5145 1.84375 51.5145H31.3438C31.8327 51.5145 32.3017 51.3202 32.6475 50.9744C32.9933 50.6287 33.1875 50.1597 33.1875 49.6707V42.2957C33.0901 39.3525 31.9804 36.5329 30.0457 34.3127C28.111 32.0925 25.4698 30.6076 22.5675 30.1085H22.2356C23.313 29.4151 24.2029 28.467 24.8268 27.3479C25.4506 26.2288 25.7892 24.9733 25.8125 23.6923C25.8125 23.1023 25.8125 22.5492 25.8125 22.0145C26.1089 22.01 26.3998 21.9341 26.6606 21.7932C26.9873 21.6179 27.2535 21.3482 27.4245 21.0193C27.5955 20.6904 27.6635 20.3176 27.6194 19.9495L26.6053 11.6526C26.5738 11.4511 26.505 11.2573 26.4025 11.081L29.5 9.91947V20.1707C29.4913 20.2935 29.4913 20.4167 29.5 20.5395C28.941 20.8356 28.4736 21.279 28.1486 21.8218C27.8236 22.3646 27.6533 22.9859 27.6563 23.6185V25.702C27.6563 26.191 27.8505 26.6599 28.1963 27.0057C28.542 27.3515 29.011 27.5457 29.5 27.5457H33.1875C33.6765 27.5457 34.1455 27.3515 34.4912 27.0057C34.837 26.6599 35.0313 26.191 35.0313 25.702V23.6185C35.0342 22.9859 34.8639 22.3646 34.5389 21.8218C34.2139 21.279 33.7465 20.8356 33.1875 20.5395ZM16.5938 3.70603L26.0891 7.26447L16.5938 10.8229L7.09844 7.26447L16.5938 3.70603ZM11.1731 20.1707C12.714 20.1053 14.2225 20.6257 15.3953 21.6273C15.7293 21.9129 16.1543 22.0699 16.5938 22.0699C17.0332 22.0699 17.4582 21.9129 17.7922 21.6273C18.7812 20.7794 20.0148 20.2692 21.3138 20.1707C21.5833 20.1409 21.8554 20.1409 22.125 20.1707C22.125 21.2217 22.125 22.4201 22.125 23.7292C22.1266 24.4379 21.9491 25.1356 21.6087 25.7573C21.2935 26.3384 20.8602 26.8471 20.3366 27.2507C19.784 27.6775 19.1596 28.0022 18.4928 28.2095V32.7267C18.3732 32.8648 18.2438 32.9942 18.1056 33.1138H15.2294C15.0819 32.9663 14.9159 32.7635 14.75 32.5607V28.2832C14.441 28.1732 14.1393 28.0439 13.8466 27.896C13.5161 27.7279 13.2014 27.5304 12.9063 27.306L12.6481 27.0663C12.233 26.6932 11.8785 26.2578 11.5972 25.7757C11.2421 25.139 11.0579 24.4213 11.0625 23.6923V20.1707H11.1731ZM14.75 36.7645H18.4375V47.827H14.75V36.7645ZM3.6875 42.2957C3.80585 40.2635 4.59353 38.3276 5.92764 36.79C7.26175 35.2525 9.06726 34.1997 11.0625 33.796V47.827H9.21875V44.1395C9.21875 43.6505 9.0245 43.1815 8.67873 42.8357C8.33296 42.49 7.86399 42.2957 7.375 42.2957C6.88601 42.2957 6.41704 42.49 6.07127 42.8357C5.7255 43.1815 5.53125 43.6505 5.53125 44.1395V47.827H3.6875V42.2957ZM29.5 42.2957V47.827H27.6563V44.1395C27.6563 43.6505 27.462 43.1815 27.1162 42.8357C26.7705 42.49 26.3015 42.2957 25.8125 42.2957C25.3235 42.2957 24.8545 42.49 24.5088 42.8357C24.163 43.1815 23.9688 43.6505 23.9688 44.1395V47.827H22.125V34.1279L22.3647 33.8882C24.3125 34.3111 26.0668 35.3636 27.3565 36.8833C28.6462 38.403 29.3995 40.3051 29.5 42.2957ZM23.1206 13.3673L23.5263 16.6307C22.8165 16.4893 22.0915 16.4397 21.3691 16.4832H21.0925H20.3919C19.0416 16.679 17.7476 17.1564 16.5938 17.8845C14.9043 16.8365 12.9381 16.3225 10.9519 16.4095H10.8228C10.4379 16.4336 10.0556 16.4891 9.67969 16.5754L9.77188 15.8563L10.1959 12.3348L15.9484 14.492C16.366 14.6396 16.8215 14.6396 17.2391 14.492L22.9916 12.3348L23.1206 13.3673Z" fill="white"/>
</svg>
