<svg width="40" height="40" viewBox="0 0 40 40" fill="none" xmlns="http://www.w3.org/2000/svg">
<path d="M23.6577 32.2319L13.9927 26.65L14.9502 24.9932L24.6133 30.575L23.6577 32.2319Z" fill="#0B5FEF"/>
<path d="M33.5194 35.41C36.3106 32.7737 38.0794 29.07 38.0794 24.9362C38.0794 19.8431 35.4044 15.2494 31.245 12.6694L35.905 4.60312L35.1731 4.18124L36.3225 2.18249L33.3094 0.443115L32.1575 2.43874L31.3869 1.99374L19.9306 21.8387L20.9312 22.4162L19.5106 24.8737L22.0281 26.3275L23.4494 23.8687L24.4487 24.4462L29.2662 16.1031C30.7515 17.0497 31.9743 18.3552 32.8219 19.8992C33.6694 21.4431 34.1143 23.1756 34.1156 24.9369C34.1156 30.7119 29.4144 35.4106 23.6387 35.4106H15.1975V39.3762H38.9587V35.4106H33.5206L33.5194 35.41ZM12.4269 4.91562V1.76749H12.8144L12.8087 1.01249H9.27812L9.28375 1.76749H9.7V4.91562H7.06562V1.76749H7.45187L7.4475 1.01249H3.91375L3.92062 1.76749H4.33687V4.91562H0.46875V20.685H16.2619V4.91562H12.4281H12.4269ZM14.9244 19.35H1.80437V6.25062H4.33625V16.3256C4.33625 17.0881 4.95937 17.7075 5.71125 17.7075C6.46437 17.7044 7.065 17.0869 7.065 16.3256V6.25062H9.69937V16.3256C9.69937 17.0881 10.3231 17.7075 11.075 17.7075C11.8281 17.7044 12.4287 17.0869 12.4275 16.3256V6.25062H14.9244V19.35Z" fill="#0B5FEF"/>
</svg>
