<svg width="40" height="40" viewBox="0 0 40 40" fill="none" xmlns="http://www.w3.org/2000/svg">
<g clip-path="url(#clip0_154_554)">
<path d="M12.2224 18.3333L11.1113 21.7777H13.3336L12.2224 18.3333Z" fill="#0B5FEF"/>
<path d="M33.6668 3.33325H15.889V8.88881H20.3334V11.111H5.889C4.00011 11.111 2.55566 12.5555 2.55566 14.4444V26.6666C2.55566 28.5555 4.00011 29.9999 5.889 29.9999H7.00011V35.6666L14.0001 29.9999H21.4446V22.2221H33.6668C35.5557 22.2221 37.0001 20.7777 37.0001 18.8888V6.66659C37.0001 4.7777 35.5557 3.33325 33.6668 3.33325ZM14.5557 25.4444L14.0001 23.6666H10.5557L9.889 25.4444H7.22233L10.889 15.5555H13.5557L17.2223 25.4444H14.5557ZM31.4446 16.6666V18.8888C30.0001 18.8888 28.4446 18.4444 27.1112 17.7777C25.7779 18.4444 24.2223 18.7777 22.6668 18.8888L22.5557 16.6666C23.3334 16.6666 24.1112 16.5555 24.889 16.3333C23.889 15.3333 23.2223 14.111 22.889 12.7777H25.2223C25.5557 13.7777 26.2223 14.5555 27.0001 15.2221C28.2223 14.2221 29.0001 12.7777 29.1112 11.111H22.4446V8.88881H25.7779V6.66659H28.0001V8.88881H31.6668L31.7779 9.99992C31.889 12.3333 31.0001 14.6666 29.3334 16.3333C30.1112 16.5555 30.7779 16.6666 31.4446 16.6666Z" fill="#0B5FEF"/>
</g>
<defs>
<clipPath id="clip0_154_554">
<rect width="40" height="40" fill="white"/>
</clipPath>
</defs>
</svg>
