<svg width="48" height="48" viewBox="0 0 48 48" fill="none" xmlns="http://www.w3.org/2000/svg">
<path d="M47.3179 45.09L42.1035 27.675C42.2054 27.4647 42.2574 27.2337 42.2554 27V1.6875C42.2554 1.23995 42.0776 0.810725 41.7611 0.494257C41.4447 0.17779 41.0154 0 40.5679 0H6.8179C6.37035 0 5.94112 0.17779 5.62466 0.494257C5.30819 0.810725 5.1304 1.23995 5.1304 1.6875V27C5.12842 27.2337 5.18039 27.4647 5.28227 27.675L0.0678993 45.09C-0.00731127 45.3471 -0.0202545 45.6183 0.0301397 45.8814C0.080534 46.1444 0.192818 46.3917 0.357709 46.6028C0.5226 46.8138 0.735361 46.9826 0.978402 47.0951C1.22144 47.2077 1.48778 47.2608 1.7554 47.25H45.6304C45.898 47.2608 46.1644 47.2077 46.4074 47.0951C46.6504 46.9826 46.8632 46.8138 47.0281 46.6028C47.193 46.3917 47.3053 46.1444 47.3557 45.8814C47.406 45.6183 47.3931 45.3471 47.3179 45.09ZM8.5054 3.375H38.8804V25.3125H8.5054V3.375ZM17.3141 43.875L18.3266 38.8125H29.0591L30.0716 43.875H17.3141ZM33.5141 43.875L32.1304 36.7875C32.0515 36.4006 31.8394 36.0536 31.5311 35.8069C31.2228 35.5603 30.8377 35.4295 30.4429 35.4375H16.9429C16.5481 35.4295 16.163 35.5603 15.8547 35.8069C15.5464 36.0536 15.3343 36.4006 15.2554 36.7875L13.8716 43.875H4.01665L8.5054 28.6875H38.8804L43.3691 43.875H33.5141Z" fill="white"/>
<path d="M35.5054 5.0625H11.8804C11.4328 5.0625 11.0036 5.24029 10.6871 5.55676C10.3707 5.87323 10.1929 6.30245 10.1929 6.75V21.9375C10.1929 22.3851 10.3707 22.8143 10.6871 23.1307C11.0036 23.4472 11.4328 23.625 11.8804 23.625H35.5054C35.9529 23.625 36.3821 23.4472 36.6986 23.1307C37.0151 22.8143 37.1929 22.3851 37.1929 21.9375V6.75C37.1929 6.30245 37.0151 5.87323 36.6986 5.55676C36.3821 5.24029 35.9529 5.0625 35.5054 5.0625ZM33.8179 20.25H13.5679V8.4375H33.8179V20.25Z" fill="white"/>
</svg>
