<svg width="132" height="168" viewBox="0 0 132 168" fill="none" xmlns="http://www.w3.org/2000/svg">
<path d="M0 0H132V160C132 164.418 128.418 168 124 168H0V0Z" fill="#0B5FEF"/>
<path d="M86.16 55V97H74.28V80.62H58.08V97H46.2V55H58.08V70.78H74.28V55H86.16Z" fill="white"/>
<path d="M28.048 122.168C26.8 122.168 25.828 121.828 25.132 121.148C24.444 120.468 24.1 119.504 24.1 118.256V113.6H26.476V118.184C26.476 119.528 27.008 120.2 28.072 120.2C29.128 120.2 29.656 119.528 29.656 118.184V113.6H31.996V118.256C31.996 119.504 31.648 120.468 30.952 121.148C30.264 121.828 29.296 122.168 28.048 122.168ZM41.5976 113.6V122H39.6416L35.9336 117.524V122H33.6056V113.6H35.5616L39.2696 118.076V113.6H41.5976ZM43.2736 113.6H45.6496V122H43.2736V113.6ZM55.8366 113.6L52.2366 122H49.8966L46.3086 113.6H48.8766L51.1566 119.072L53.4846 113.6H55.8366ZM63.0723 120.164V122H56.3283V113.6H62.9163V115.436H58.6803V116.852H62.4123V118.628H58.6803V120.164H63.0723ZM68.0628 119.768H66.7668V122H64.3908V113.6H68.2308C68.9908 113.6 69.6508 113.728 70.2108 113.984C70.7708 114.232 71.2028 114.592 71.5068 115.064C71.8108 115.528 71.9628 116.076 71.9628 116.708C71.9628 117.316 71.8188 117.848 71.5308 118.304C71.2508 118.752 70.8468 119.104 70.3188 119.36L72.1308 122H69.5868L68.0628 119.768ZM69.5628 116.708C69.5628 116.316 69.4388 116.012 69.1908 115.796C68.9428 115.58 68.5748 115.472 68.0868 115.472H66.7668V117.932H68.0868C68.5748 117.932 68.9428 117.828 69.1908 117.62C69.4388 117.404 69.5628 117.1 69.5628 116.708ZM76.2256 122.168C75.5456 122.168 74.8856 122.084 74.2456 121.916C73.6056 121.748 73.0856 121.524 72.6856 121.244L73.4656 119.492C73.8416 119.74 74.2776 119.94 74.7736 120.092C75.2696 120.244 75.7576 120.32 76.2376 120.32C77.1496 120.32 77.6056 120.092 77.6056 119.636C77.6056 119.396 77.4736 119.22 77.2096 119.108C76.9536 118.988 76.5376 118.864 75.9616 118.736C75.3296 118.6 74.8016 118.456 74.3776 118.304C73.9536 118.144 73.5896 117.892 73.2856 117.548C72.9816 117.204 72.8296 116.74 72.8296 116.156C72.8296 115.644 72.9696 115.184 73.2496 114.776C73.5296 114.36 73.9456 114.032 74.4976 113.792C75.0576 113.552 75.7416 113.432 76.5496 113.432C77.1016 113.432 77.6456 113.496 78.1816 113.624C78.7176 113.744 79.1896 113.924 79.5976 114.164L78.8656 115.928C78.0656 115.496 77.2896 115.28 76.5376 115.28C76.0656 115.28 75.7216 115.352 75.5056 115.496C75.2896 115.632 75.1816 115.812 75.1816 116.036C75.1816 116.26 75.3096 116.428 75.5656 116.54C75.8216 116.652 76.2336 116.768 76.8016 116.888C77.4416 117.024 77.9696 117.172 78.3856 117.332C78.8096 117.484 79.1736 117.732 79.4776 118.076C79.7896 118.412 79.9456 118.872 79.9456 119.456C79.9456 119.96 79.8056 120.416 79.5256 120.824C79.2456 121.232 78.8256 121.56 78.2656 121.808C77.7056 122.048 77.0256 122.168 76.2256 122.168ZM81.0431 113.6H83.4191V122H81.0431V113.6ZM86.8975 115.484H84.3175V113.6H91.8415V115.484H89.2735V122H86.8975V115.484ZM97.9328 120.368H94.3808L93.7208 122H91.2968L95.0048 113.6H97.3448L101.065 122H98.5928L97.9328 120.368ZM97.2368 118.616L96.1568 115.928L95.0768 118.616H97.2368ZM104.69 122.168C104.01 122.168 103.35 122.084 102.71 121.916C102.07 121.748 101.55 121.524 101.15 121.244L101.93 119.492C102.306 119.74 102.742 119.94 103.238 120.092C103.734 120.244 104.222 120.32 104.702 120.32C105.614 120.32 106.07 120.092 106.07 119.636C106.07 119.396 105.938 119.22 105.674 119.108C105.418 118.988 105.002 118.864 104.426 118.736C103.794 118.6 103.266 118.456 102.842 118.304C102.418 118.144 102.054 117.892 101.75 117.548C101.446 117.204 101.294 116.74 101.294 116.156C101.294 115.644 101.434 115.184 101.714 114.776C101.994 114.36 102.41 114.032 102.962 113.792C103.522 113.552 104.206 113.432 105.014 113.432C105.566 113.432 106.11 113.496 106.646 113.624C107.182 113.744 107.654 113.924 108.062 114.164L107.33 115.928C106.53 115.496 105.754 115.28 105.002 115.28C104.53 115.28 104.186 115.352 103.97 115.496C103.754 115.632 103.646 115.812 103.646 116.036C103.646 116.26 103.774 116.428 104.03 116.54C104.286 116.652 104.698 116.768 105.266 116.888C105.906 117.024 106.434 117.172 106.85 117.332C107.274 117.484 107.638 117.732 107.942 118.076C108.254 118.412 108.41 118.872 108.41 119.456C108.41 119.96 108.27 120.416 107.99 120.824C107.71 121.232 107.29 121.56 106.73 121.808C106.17 122.048 105.49 122.168 104.69 122.168Z" fill="white"/>
<path d="M19.1758 129.6V138H16.7998V134.724H13.5598V138H11.1838V129.6H13.5598V132.756H16.7998V129.6H19.1758ZM26.4797 136.368H22.9277L22.2677 138H19.8437L23.5517 129.6H25.8917L29.6117 138H27.1397L26.4797 136.368ZM25.7837 134.616L24.7037 131.928L23.6237 134.616H25.7837ZM30.2853 129.6H32.6613V136.116H36.6693V138H30.2853V129.6ZM37.6095 129.6H39.9855V138H37.6095V129.6ZM49.2599 138L49.2359 133.548L47.0759 137.172H46.0199L43.8719 133.668V138H41.6759V129.6H43.6319L46.5839 134.448L49.4639 129.6H51.4199L51.4439 138H49.2599ZM64.2013 138L64.1773 133.548L62.0173 137.172H60.9613L58.8133 133.668V138H56.6173V129.6H58.5733L61.5253 134.448L64.4053 129.6H66.3613L66.3853 138H64.2013ZM71.9426 138.168C70.6946 138.168 69.7226 137.828 69.0266 137.148C68.3386 136.468 67.9946 135.504 67.9946 134.256V129.6H70.3706V134.184C70.3706 135.528 70.9026 136.2 71.9666 136.2C73.0226 136.2 73.5506 135.528 73.5506 134.184V129.6H75.8906V134.256C75.8906 135.504 75.5426 136.468 74.8466 137.148C74.1586 137.828 73.1906 138.168 71.9426 138.168ZM83.9562 133.62C84.4362 133.788 84.8122 134.052 85.0842 134.412C85.3562 134.764 85.4922 135.192 85.4922 135.696C85.4922 136.432 85.1962 137 84.6042 137.4C84.0122 137.8 83.1562 138 82.0362 138H77.5002V129.6H81.7962C82.8682 129.6 83.6842 129.8 84.2442 130.2C84.8042 130.592 85.0842 131.124 85.0842 131.796C85.0842 132.196 84.9842 132.556 84.7842 132.876C84.5922 133.188 84.3162 133.436 83.9562 133.62ZM79.8522 131.316V132.936H81.4842C82.2842 132.936 82.6842 132.664 82.6842 132.12C82.6842 131.584 82.2842 131.316 81.4842 131.316H79.8522ZM81.8442 136.284C82.6762 136.284 83.0922 136 83.0922 135.432C83.0922 134.864 82.6762 134.58 81.8442 134.58H79.8522V136.284H81.8442ZM92.3508 136.368H88.7988L88.1388 138H85.7148L89.4228 129.6H91.7628L95.4828 138H93.0108L92.3508 136.368ZM91.6548 134.616L90.5748 131.928L89.4948 134.616H91.6548ZM99.8284 135.768H98.5324V138H96.1564V129.6H99.9964C100.756 129.6 101.416 129.728 101.976 129.984C102.536 130.232 102.968 130.592 103.272 131.064C103.576 131.528 103.728 132.076 103.728 132.708C103.728 133.316 103.584 133.848 103.296 134.304C103.016 134.752 102.612 135.104 102.084 135.36L103.896 138H101.352L99.8284 135.768ZM101.328 132.708C101.328 132.316 101.204 132.012 100.956 131.796C100.708 131.58 100.34 131.472 99.8524 131.472H98.5324V133.932H99.8524C100.34 133.932 100.708 133.828 100.956 133.62C101.204 133.404 101.328 133.1 101.328 132.708ZM110.667 136.368H107.115L106.455 138H104.031L107.739 129.6H110.079L113.799 138H111.327L110.667 136.368ZM109.971 134.616L108.891 131.928L107.811 134.616H109.971ZM117.713 134.952L116.825 135.9V138H114.473V129.6H116.825V133.092L120.077 129.6H122.693L119.261 133.32L122.873 138H120.113L117.713 134.952Z" fill="white"/>
</svg>
