<svg width="40" height="40" viewBox="0 0 40 40" fill="none" xmlns="http://www.w3.org/2000/svg">
<path fill-rule="evenodd" clip-rule="evenodd" d="M11.6668 3.33325C11.4458 3.33325 11.2339 3.42105 11.0776 3.57733C10.9213 3.73361 10.8335 3.94557 10.8335 4.16659V6.66659C10.8335 6.8876 10.9213 7.09956 11.0776 7.25584C11.2339 7.41212 11.4458 7.49992 11.6668 7.49992H12.5002V9.39408C12.2563 9.48029 12.0453 9.63999 11.896 9.85118C11.7468 10.0624 11.6667 10.3146 11.6668 10.5733V32.4999C11.6661 33.4768 12.0086 34.4228 12.6346 35.1728C13.2605 35.9228 14.1301 36.429 15.0913 36.603C16.0525 36.777 17.0444 36.6078 17.8935 36.1248C18.7426 35.6418 19.3951 34.8759 19.7368 33.9608C18.7767 33.1801 18.0028 32.195 17.4717 31.0773C16.9406 29.9595 16.6656 28.7374 16.6668 27.4999C16.6659 26.206 16.9666 24.9298 17.5453 23.7725C18.1239 22.6152 18.9645 21.6088 20.0002 20.8333V10.5716C20.0001 10.3131 19.92 10.061 19.7707 9.85C19.6215 9.63898 19.4105 9.47941 19.1668 9.39325V7.49992H20.0002C20.2212 7.49992 20.4331 7.41212 20.5894 7.25584C20.7457 7.09956 20.8335 6.8876 20.8335 6.66659V4.16659C20.8335 3.94557 20.7457 3.73361 20.5894 3.57733C20.4331 3.42105 20.2212 3.33325 20.0002 3.33325H11.6668ZM14.1668 9.73992V7.49992H17.5002V9.73992C17.5002 9.99838 17.5804 10.2505 17.7296 10.4615C17.8788 10.6725 18.0898 10.8321 18.3335 10.9183V14.9999H13.3335V10.9183C13.5773 10.8321 13.7884 10.6723 13.9376 10.4612C14.0869 10.25 14.167 9.99769 14.1668 9.73909V9.73992ZM27.2977 30.9766C26.8532 31.2711 26.356 31.4771 25.8335 31.5833V32.4999C26.0545 32.4999 26.2665 32.5877 26.4228 32.744C26.579 32.9003 26.6668 33.1122 26.6668 33.3333C26.6668 33.5543 26.579 33.7662 26.4228 33.9225C26.2665 34.0788 26.0545 34.1666 25.8335 34.1666H24.1668C23.9458 34.1666 23.7339 34.0788 23.5776 33.9225C23.4213 33.7662 23.3335 33.5543 23.3335 33.3333C23.3335 33.1122 23.4213 32.9003 23.5776 32.744C23.7339 32.5877 23.9458 32.4999 24.1668 32.4999V31.5833C23.6443 31.4771 23.1471 31.2711 22.7027 30.9766L22.0118 31.6666C22.1636 31.8238 22.2476 32.0343 22.2457 32.2528C22.2438 32.4712 22.1562 32.6803 22.0017 32.8348C21.8472 32.9893 21.6382 33.0769 21.4197 33.0788C21.2012 33.0807 20.9907 32.9967 20.8335 32.8449L19.6552 31.6666C19.5034 31.5094 19.4194 31.2989 19.4213 31.0804C19.4232 30.8619 19.5108 30.6529 19.6653 30.4984C19.8198 30.3439 20.0288 30.2563 20.2473 30.2544C20.4658 30.2525 20.6763 30.3365 20.8335 30.4883L21.5235 29.7974C21.2289 29.3529 21.023 28.8558 20.9168 28.3333H20.0002C20.0002 28.5543 19.9124 28.7662 19.7561 28.9225C19.5998 29.0788 19.3878 29.1666 19.1668 29.1666C18.9458 29.1666 18.7339 29.0788 18.5776 28.9225C18.4213 28.7662 18.3335 28.5543 18.3335 28.3333V26.6666C18.3335 26.4456 18.4213 26.2336 18.5776 26.0773C18.7339 25.921 18.9458 25.8333 19.1668 25.8333C19.3878 25.8333 19.5998 25.921 19.7561 26.0773C19.9124 26.2336 20.0002 26.4456 20.0002 26.6666H20.9168C21.0252 26.1349 21.2335 25.6391 21.5235 25.2024L20.8335 24.5116C20.6763 24.6634 20.4658 24.7474 20.2473 24.7455C20.0288 24.7436 19.8198 24.6559 19.6653 24.5014C19.5108 24.3469 19.4232 24.1379 19.4213 23.9194C19.4194 23.7009 19.5034 23.4904 19.6552 23.3333L20.2368 22.7516L20.2443 22.7433C20.2471 22.7407 20.2499 22.7382 20.2527 22.7358L20.8335 22.1549C20.9104 22.0753 21.0023 22.0118 21.104 21.9682C21.2057 21.9245 21.315 21.9015 21.4257 21.9005C21.5363 21.8996 21.646 21.9207 21.7485 21.9626C21.8509 22.0045 21.9439 22.0663 22.0222 22.1446C22.1004 22.2228 22.1623 22.3159 22.2042 22.4183C22.2461 22.5207 22.2672 22.6304 22.2662 22.7411C22.2652 22.8517 22.2423 22.9611 22.1986 23.0628C22.1549 23.1644 22.0914 23.2564 22.0118 23.3333L22.7027 24.0233C23.1471 23.7287 23.6443 23.5227 24.1668 23.4166V22.4999C23.9458 22.4999 23.7339 22.4121 23.5776 22.2558C23.4213 22.0996 23.3335 21.8876 23.3335 21.6666C23.3335 21.4456 23.4213 21.2336 23.5776 21.0773C23.7339 20.921 23.9458 20.8333 24.1668 20.8333H25.8335C26.0545 20.8333 26.2665 20.921 26.4228 21.0773C26.579 21.2336 26.6668 21.4456 26.6668 21.6666C26.6668 21.8876 26.579 22.0996 26.4228 22.2558C26.2665 22.4121 26.0545 22.4999 25.8335 22.4999V23.4166C26.3652 23.5249 26.861 23.7333 27.2977 24.0233L27.9885 23.3333C27.8367 23.1761 27.7527 22.9656 27.7546 22.7471C27.7565 22.5286 27.8441 22.3196 27.9986 22.1651C28.1532 22.0106 28.3622 21.9229 28.5807 21.921C28.7992 21.9191 29.0097 22.0031 29.1668 22.1549L30.3452 23.3333C30.497 23.4904 30.581 23.7009 30.5791 23.9194C30.5772 24.1379 30.4895 24.3469 30.335 24.5014C30.1805 24.6559 29.9715 24.7436 29.753 24.7455C29.5345 24.7474 29.324 24.6634 29.1668 24.5116L28.4768 25.2024C28.766 25.6391 28.9752 26.1349 29.0835 26.6666H30.0002C30.0002 26.4456 30.088 26.2336 30.2442 26.0773C30.4005 25.921 30.6125 25.8333 30.8335 25.8333C31.0545 25.8333 31.2665 25.921 31.4228 26.0773C31.579 26.2336 31.6668 26.4456 31.6668 26.6666V28.3333C31.6668 28.5543 31.579 28.7662 31.4228 28.9225C31.2665 29.0788 31.0545 29.1666 30.8335 29.1666C30.6125 29.1666 30.4005 29.0788 30.2442 28.9225C30.088 28.7662 30.0002 28.5543 30.0002 28.3333H29.0835C28.9774 28.8558 28.7714 29.3529 28.4768 29.7974L29.1668 30.4883C29.2437 30.4087 29.3357 30.3452 29.4373 30.3015C29.539 30.2578 29.6483 30.2348 29.759 30.2339C29.8696 30.2329 29.9794 30.254 30.0818 30.2959C30.1842 30.3378 30.2772 30.3997 30.3555 30.4779C30.4337 30.5562 30.4956 30.6492 30.5375 30.7516C30.5794 30.854 30.6005 30.9638 30.5995 31.0744C30.5986 31.1851 30.5756 31.2944 30.5319 31.3961C30.4882 31.4978 30.4248 31.5897 30.3452 31.6666L29.1668 32.8449C29.0097 32.9967 28.7992 33.0807 28.5807 33.0788C28.3622 33.0769 28.1532 32.9893 27.9986 32.8348C27.8441 32.6803 27.7565 32.4712 27.7546 32.2528C27.7527 32.0343 27.8367 31.8238 27.9885 31.6666L27.2977 30.9766Z" fill="#0B5FEF"/>
</svg>
