<svg width="48" height="44" viewBox="0 0 48 44" fill="none" xmlns="http://www.w3.org/2000/svg">
<path d="M45.5625 6.77739H42.1875V5.27551C42.1962 4.88309 42.0679 4.4999 41.8246 4.1919C41.5812 3.88389 41.2382 3.67035 40.8544 3.58801C39.2278 3.22735 37.644 2.69564 36.1294 2.00176C35.4936 1.71517 34.8739 1.39407 34.2731 1.03989C33.745 0.707794 33.1783 0.441447 32.5856 0.246764C30.0037 -0.495736 27 0.432389 23.625 3.09864C20.25 0.432389 17.2463 -0.478861 14.6981 0.297389C14.1054 0.492072 13.5387 0.75842 13.0106 1.09051C12.4056 1.44754 11.7802 1.76872 11.1375 2.05239C9.62976 2.74896 8.05124 3.28079 6.42937 3.63864C6.04559 3.72097 5.7025 3.93452 5.45918 4.24252C5.21586 4.55052 5.08752 4.93372 5.09625 5.32614V6.77739H1.6875C1.23995 6.77739 0.810725 6.95518 0.494257 7.27165C0.17779 7.58811 0 8.01734 0 8.46489V38.8399C0 39.2874 0.17779 39.7167 0.494257 40.0331C0.810725 40.3496 1.23995 40.5274 1.6875 40.5274H18.8494C19.1972 41.5162 19.8435 42.3727 20.6989 42.9786C21.5543 43.5845 22.5767 43.9099 23.625 43.9099C24.6733 43.9099 25.6957 43.5845 26.5511 42.9786C27.4065 42.3727 28.0528 41.5162 28.4006 40.5274H45.5625C46.0101 40.5274 46.4393 40.3496 46.7557 40.0331C47.0722 39.7167 47.25 39.2874 47.25 38.8399V8.46489C47.25 8.01734 47.0722 7.58811 46.7557 7.27165C46.4393 6.95518 46.0101 6.77739 45.5625 6.77739ZM31.5731 3.52051C31.9329 3.65316 32.2778 3.82282 32.6025 4.02676C33.2923 4.41782 34.002 4.77268 34.7287 5.08989C36.0466 5.70601 37.4123 6.21393 38.8125 6.60864V31.7693C37.8971 31.4836 37.0009 31.1398 36.1294 30.7399C35.4936 30.4533 34.8739 30.1322 34.2731 29.778C33.745 29.4459 33.1783 29.1796 32.5856 28.9849C31.3357 28.6968 30.0372 28.6913 28.7848 28.9686C27.5325 29.2459 26.3577 29.7992 25.3463 30.588V6.77739C25.351 6.56875 25.3107 6.36154 25.2281 6.16989C27.8775 3.95926 30.0712 3.06489 31.5731 3.52051ZM8.4375 6.60864C9.83311 6.2167 11.1935 5.70868 12.5044 5.08989C13.2387 4.76461 13.9542 4.39841 14.6475 3.99301C14.9722 3.78907 15.3171 3.61941 15.6769 3.48676C17.1787 3.03114 19.3725 3.94239 22.0556 6.13614C21.9681 6.33816 21.9277 6.55745 21.9375 6.77739V30.6049C20.344 29.4687 18.4584 28.8129 16.5037 28.7149C15.8915 28.7099 15.2822 28.801 14.6981 28.9849C14.1054 29.1796 13.5387 29.4459 13.0106 29.778C12.4056 30.135 11.7802 30.4562 11.1375 30.7399C10.2619 31.1439 9.35983 31.4879 8.4375 31.7693V6.60864ZM43.875 37.1524H27C26.5524 37.1524 26.1232 37.3302 25.8068 37.6466C25.4903 37.9631 25.3125 38.3923 25.3125 38.8399C25.3125 39.2874 25.1347 39.7167 24.8182 40.0331C24.5018 40.3496 24.0726 40.5274 23.625 40.5274C23.1774 40.5274 22.7482 40.3496 22.4318 40.0331C22.1153 39.7167 21.9375 39.2874 21.9375 38.8399C21.9375 38.3923 21.7597 37.9631 21.4432 37.6466C21.1268 37.3302 20.6976 37.1524 20.25 37.1524H3.375V10.1524H5.0625V33.963C5.06164 34.2151 5.11728 34.4642 5.22533 34.692C5.33338 34.9198 5.49109 35.1204 5.68687 35.2793C5.88292 35.4379 6.11202 35.5505 6.35732 35.6089C6.60262 35.6673 6.8579 35.67 7.10437 35.6168C8.96558 35.2007 10.7762 34.5839 12.5044 33.7774C13.2387 33.4521 13.9542 33.0859 14.6475 32.6805C14.9722 32.4766 15.3171 32.3069 15.6769 32.1743C17.2631 31.6849 19.6256 32.748 22.5281 35.2118C22.8338 35.4732 23.2228 35.6169 23.625 35.6169C24.0272 35.6169 24.4162 35.4732 24.7219 35.2118C27.6244 32.748 29.9869 31.6849 31.5731 32.1743C31.9329 32.3069 32.2778 32.4766 32.6025 32.6805C33.2916 33.083 34.0013 33.4492 34.7287 33.7774C36.4651 34.57 38.281 35.1753 40.1456 35.583H40.5C40.8864 35.5846 41.2617 35.4536 41.5631 35.2118C41.7589 35.0529 41.9166 34.8523 42.0247 34.6245C42.1327 34.3967 42.1884 34.1476 42.1875 33.8955V10.1524H43.875V37.1524Z" fill="white"/>
</svg>
