<svg width="56" height="49" viewBox="0 0 56 49" fill="none" xmlns="http://www.w3.org/2000/svg">
<path d="M51.0115 34.3453V15.7303L51.989 15.284C52.36 15.115 52.6745 14.8428 52.8951 14.4999C53.1156 14.157 53.2329 13.758 53.2329 13.3503C53.2329 12.9426 53.1156 12.5435 52.8951 12.2006C52.6745 11.8577 52.36 11.5855 51.989 11.4165L27.509 0.196511C27.2292 0.0670542 26.9247 0 26.6165 0C26.3082 0 26.0037 0.0670542 25.724 0.196511L1.24396 11.4165C0.872957 11.5855 0.558413 11.8577 0.337846 12.2006C0.117279 12.5435 0 12.9426 0 13.3503C0 13.758 0.117279 14.157 0.337846 14.4999C0.558413 14.8428 0.872957 15.115 1.24396 15.284L10.1477 19.364L8.51146 32.4753C8.46134 32.8991 8.53999 33.3282 8.73718 33.7067C8.93437 34.0852 9.24096 34.3955 9.61701 34.5973C9.99307 34.7991 10.4212 34.883 10.8456 34.838C11.27 34.7931 11.671 34.6213 11.9965 34.3453C12.2231 34.1186 12.4781 33.8848 12.7615 33.644C13.2923 32.9818 13.965 32.447 14.73 32.0793C15.495 31.7115 16.3327 31.5201 17.1815 31.519C20.1167 31.4028 22.9893 32.3881 25.2352 34.2815C25.6201 34.6107 26.11 34.7916 26.6165 34.7916C27.123 34.7916 27.6128 34.6107 27.9977 34.2815C29.8756 32.6541 32.2333 31.6842 34.7127 31.519C35.8094 31.3881 36.9214 31.5246 37.9538 31.9169C38.9862 32.3091 39.9084 32.9455 40.6415 33.7715L41.1727 34.2815C41.5576 34.6107 42.0475 34.7916 42.554 34.7915C42.9028 34.7898 43.2458 34.7022 43.5527 34.5365C43.9292 34.3345 44.236 34.0236 44.4331 33.6445C44.6302 33.2654 44.7085 32.8357 44.6577 32.4115L43.0427 19.3428L46.7615 17.6853V34.3453C45.5264 34.7519 44.4509 35.5375 43.6879 36.5904C42.9249 37.6433 42.5133 38.91 42.5115 40.2103V46.7553C42.5115 47.3188 42.7353 47.8593 43.1339 48.2579C43.5324 48.6564 44.0729 48.8803 44.6365 48.8803H53.1365C53.7 48.8803 54.2405 48.6564 54.6391 48.2579C55.0376 47.8593 55.2615 47.3188 55.2615 46.7553V40.2103C55.2596 38.91 54.848 37.6433 54.085 36.5904C53.322 35.5375 52.2465 34.7519 51.0115 34.3453ZM39.8127 28.1615C38.1012 27.4748 36.2527 27.1983 34.4152 27.354C31.6003 27.5187 28.8862 28.4602 26.574 30.074C23.7326 28.123 20.3256 27.1667 16.884 27.354C15.6782 27.4135 14.4886 27.6572 13.3565 28.0765L14.2065 21.2553L25.724 26.5465C26.0037 26.676 26.3082 26.743 26.6165 26.743C26.9247 26.743 27.2292 26.676 27.509 26.5465L38.9415 21.2553L39.8127 28.1615ZM26.6165 22.2328L7.23646 13.3503L26.6165 4.46776L45.9965 13.3503L26.6165 22.2328ZM51.0115 44.6303H46.7615V40.2103C46.7615 39.9535 46.812 39.6993 46.9103 39.4621C47.0085 39.2249 47.1525 39.0094 47.3341 38.8279C47.5156 38.6463 47.7311 38.5023 47.9683 38.4041C48.2055 38.3058 48.4597 38.2553 48.7165 38.2553H49.0565C49.575 38.2553 50.0722 38.4612 50.4389 38.8279C50.8055 39.1945 51.0115 39.6918 51.0115 40.2103V44.6303Z" fill="white"/>
</svg>
